<?xml version="1.0" encoding="UTF-8"?>
<svg xmlns="http://www.w3.org/2000/svg" xmlns:xlink="http://www.w3.org/1999/xlink" width="756pt" height="378pt" viewBox="0 0 756 378" version="1.1">
<defs>
<clipPath id="clip1">
  <path d="M 8.21875 46 L 669 46 L 669 369.78125 L 8.21875 369.78125 Z M 8.21875 46 "/>
</clipPath>
<clipPath id="clip2">
  <path d="M 90 46 L 750.519531 46 L 750.519531 369.78125 L 90 369.78125 Z M 90 46 "/>
</clipPath>
<clipPath id="clip3">
  <path d="M 419 5.480469 L 422 5.480469 L 422 369.78125 L 419 369.78125 Z M 419 5.480469 "/>
</clipPath>
<clipPath id="clip4">
  <path d="M 337 5.480469 L 340 5.480469 L 340 369.78125 L 337 369.78125 Z M 337 5.480469 "/>
</clipPath>
</defs>
<g id="surface14">
<rect x="0" y="0" width="756" height="378" style="fill:rgb(100%,100%,100%);fill-opacity:1;stroke:none;"/>
<g clip-path="url(#clip1)" clip-rule="nonzero">
<path style=" stroke:none;fill-rule:nonzero;fill:rgb(90.196078%,25.490196%,45.098039%);fill-opacity:0.501961;" d="M 8.21875 369.671875 L 9.867188 369.664063 L 10.695313 369.660156 L 11.519531 369.652344 L 13.167969 369.644531 L 13.992188 369.636719 L 14.816406 369.632813 L 15.640625 369.625 L 16.46875 369.621094 L 18.117188 369.605469 L 18.941406 369.601563 L 21.414063 369.578125 L 22.242188 369.570313 L 23.890625 369.554688 L 24.714844 369.542969 L 26.363281 369.527344 L 27.1875 369.515625 L 28.015625 369.507813 L 32.960938 369.4375 L 33.789063 369.425781 L 34.613281 369.410156 L 35.4375 369.398438 L 38.734375 369.335938 L 39.5625 369.320313 L 40.386719 369.304688 L 42.035156 369.265625 L 42.859375 369.25 L 44.507813 369.210938 L 45.335938 369.1875 L 46.160156 369.167969 L 50.28125 369.050781 L 51.109375 369.023438 L 53.582031 368.941406 L 56.054688 368.847656 L 56.882813 368.816406 L 57.707031 368.785156 L 59.355469 368.714844 L 60.179688 368.675781 L 61.003906 368.640625 L 61.828125 368.601563 L 62.65625 368.558594 L 63.480469 368.519531 L 64.304688 368.476563 L 65.128906 368.429688 L 65.953125 368.386719 L 67.601563 368.292969 L 68.429688 368.242188 L 69.253906 368.191406 L 70.078125 368.136719 L 70.902344 368.085938 L 71.726563 368.027344 L 72.550781 367.972656 L 73.375 367.910156 L 74.203125 367.851563 L 75.027344 367.789063 L 77.5 367.589844 L 78.324219 367.519531 L 79.148438 367.445313 L 79.976563 367.371094 L 80.800781 367.296875 L 81.625 367.21875 L 83.273438 367.054688 L 84.097656 366.96875 L 84.921875 366.878906 L 85.75 366.789063 L 87.398438 366.601563 L 88.222656 366.503906 L 89.871094 366.300781 L 90.695313 366.191406 L 91.523438 366.082031 L 92.347656 365.972656 L 93.996094 365.738281 L 94.820313 365.617188 L 96.46875 365.367188 L 97.296875 365.234375 L 98.121094 365.101563 L 99.769531 364.820313 L 100.59375 364.675781 L 101.417969 364.527344 L 102.242188 364.375 L 103.070313 364.21875 L 104.71875 363.890625 L 105.542969 363.722656 L 106.367188 363.550781 L 108.015625 363.191406 L 108.84375 363.003906 L 109.667969 362.8125 L 110.492188 362.617188 L 111.316406 362.417969 L 112.140625 362.214844 L 112.964844 362.003906 L 113.789063 361.789063 L 114.617188 361.570313 L 115.441406 361.34375 L 116.265625 361.113281 L 117.089844 360.878906 L 117.914063 360.636719 L 118.738281 360.390625 L 119.5625 360.136719 L 120.390625 359.878906 L 121.214844 359.613281 L 122.039063 359.34375 L 122.863281 359.066406 L 123.6875 358.785156 L 124.511719 358.496094 L 125.335938 358.199219 L 126.164063 357.898438 L 126.988281 357.589844 L 127.8125 357.273438 L 128.636719 356.953125 L 129.460938 356.621094 L 130.285156 356.285156 L 131.109375 355.941406 L 131.9375 355.589844 L 132.761719 355.230469 L 133.585938 354.867188 L 134.410156 354.492188 L 135.234375 354.109375 L 136.058594 353.722656 L 136.882813 353.324219 L 137.710938 352.917969 L 138.535156 352.503906 L 139.359375 352.082031 L 140.183594 351.652344 L 141.007813 351.210938 L 141.832031 350.761719 L 142.660156 350.304688 L 143.484375 349.839844 L 144.308594 349.363281 L 145.132813 348.878906 L 145.957031 348.386719 L 146.78125 347.882813 L 147.605469 347.371094 L 148.433594 346.847656 L 149.257813 346.316406 L 150.082031 345.773438 L 150.90625 345.222656 L 151.730469 344.660156 L 152.554688 344.085938 L 153.378906 343.503906 L 154.207031 342.910156 L 155.03125 342.304688 L 155.855469 341.6875 L 156.679688 341.0625 L 157.503906 340.425781 L 158.328125 339.777344 L 159.152344 339.117188 L 159.980469 338.445313 L 160.804688 337.761719 L 161.628906 337.070313 L 162.453125 336.363281 L 163.277344 335.644531 L 164.101563 334.914063 L 164.925781 334.171875 L 165.753906 333.417969 L 166.578125 332.652344 L 167.402344 331.875 L 168.226563 331.085938 L 169.050781 330.28125 L 169.875 329.464844 L 170.699219 328.636719 L 171.527344 327.792969 L 172.351563 326.941406 L 173.175781 326.070313 L 174 325.191406 L 174.824219 324.296875 L 175.648438 323.390625 L 176.472656 322.46875 L 177.300781 321.535156 L 178.125 320.585938 L 178.949219 319.625 L 179.773438 318.652344 L 180.597656 317.664063 L 181.421875 316.660156 L 182.246094 315.644531 L 183.074219 314.613281 L 183.898438 313.570313 L 184.722656 312.511719 L 185.546875 311.441406 L 186.371094 310.355469 L 187.195313 309.253906 L 188.019531 308.136719 L 188.847656 307.007813 L 189.671875 305.867188 L 190.496094 304.707031 L 191.320313 303.535156 L 192.144531 302.351563 L 192.96875 301.148438 L 193.792969 299.933594 L 194.621094 298.703125 L 195.445313 297.460938 L 196.269531 296.203125 L 197.09375 294.929688 L 197.917969 293.644531 L 198.742188 292.339844 L 199.566406 291.023438 L 200.394531 289.695313 L 201.21875 288.351563 L 202.042969 286.992188 L 202.867188 285.617188 L 203.691406 284.230469 L 204.515625 282.828125 L 205.339844 281.414063 L 206.167969 279.984375 L 206.992188 278.539063 L 207.816406 277.082031 L 208.640625 275.609375 L 209.464844 274.125 L 210.289063 272.625 L 211.113281 271.113281 L 211.941406 269.585938 L 212.765625 268.046875 L 213.589844 266.496094 L 214.414063 264.929688 L 215.238281 263.347656 L 216.0625 261.757813 L 216.886719 260.152344 L 217.714844 258.535156 L 218.539063 256.902344 L 219.363281 255.261719 L 220.1875 253.605469 L 221.011719 251.9375 L 221.835938 250.257813 L 222.660156 248.566406 L 223.488281 246.863281 L 224.3125 245.152344 L 225.136719 243.425781 L 225.960938 241.6875 L 226.785156 239.941406 L 227.609375 238.183594 L 228.433594 236.414063 L 229.261719 234.636719 L 230.085938 232.847656 L 230.910156 231.046875 L 231.734375 229.238281 L 232.558594 227.421875 L 233.382813 225.59375 L 234.207031 223.761719 L 235.035156 221.914063 L 235.859375 220.0625 L 236.683594 218.203125 L 237.507813 216.335938 L 238.332031 214.457031 L 239.15625 212.574219 L 239.980469 210.6875 L 240.808594 208.789063 L 241.632813 206.886719 L 242.457031 204.976563 L 243.28125 203.0625 L 244.105469 201.144531 L 244.929688 199.21875 L 245.753906 197.289063 L 246.582031 195.355469 L 247.40625 193.417969 L 248.230469 191.476563 L 249.054688 189.53125 L 249.878906 187.582031 L 250.703125 185.628906 L 251.527344 183.679688 L 252.355469 181.722656 L 254.828125 175.851563 L 255.652344 173.890625 L 256.476563 171.933594 L 257.300781 169.972656 L 258.128906 168.015625 L 258.953125 166.058594 L 260.601563 162.152344 L 262.25 158.253906 L 263.074219 156.308594 L 263.902344 154.371094 L 264.726563 152.433594 L 265.550781 150.5 L 266.375 148.574219 L 267.199219 146.652344 L 268.023438 144.734375 L 268.847656 142.824219 L 269.675781 140.921875 L 270.5 139.027344 L 271.324219 137.140625 L 272.148438 135.257813 L 272.972656 133.386719 L 273.796875 131.523438 L 274.621094 129.671875 L 275.449219 127.824219 L 276.273438 125.992188 L 277.097656 124.167969 L 277.921875 122.359375 L 278.746094 120.558594 L 279.570313 118.769531 L 280.394531 116.992188 L 281.222656 115.230469 L 282.046875 113.480469 L 282.871094 111.746094 L 283.695313 110.023438 L 284.519531 108.316406 L 285.34375 106.625 L 286.167969 104.949219 L 286.996094 103.289063 L 287.820313 101.644531 L 288.644531 100.015625 L 289.46875 98.40625 L 290.292969 96.8125 L 291.117188 95.238281 L 291.941406 93.683594 L 292.769531 92.148438 L 293.59375 90.628906 L 294.417969 89.132813 L 295.242188 87.65625 L 296.066406 86.199219 L 296.890625 84.761719 L 297.714844 83.347656 L 298.542969 81.957031 L 299.367188 80.585938 L 300.191406 79.238281 L 301.015625 77.914063 L 301.839844 76.613281 L 302.664063 75.332031 L 303.488281 74.078125 L 304.316406 72.847656 L 305.140625 71.644531 L 305.964844 70.464844 L 306.789063 69.308594 L 307.613281 68.179688 L 308.4375 67.078125 L 309.261719 66 L 310.089844 64.953125 L 310.914063 63.929688 L 311.738281 62.933594 L 312.5625 61.964844 L 313.386719 61.023438 L 314.210938 60.113281 L 315.035156 59.230469 L 315.863281 58.375 L 316.6875 57.546875 L 317.511719 56.75 L 318.335938 55.984375 L 319.160156 55.246094 L 319.984375 54.535156 L 320.808594 53.855469 L 321.636719 53.207031 L 322.460938 52.589844 L 323.285156 52.003906 L 324.109375 51.445313 L 324.933594 50.921875 L 325.757813 50.425781 L 326.585938 49.964844 L 327.410156 49.53125 L 328.234375 49.128906 L 329.058594 48.761719 L 329.882813 48.425781 L 330.707031 48.117188 L 331.53125 47.84375 L 332.359375 47.605469 L 333.183594 47.394531 L 334.007813 47.21875 L 334.832031 47.070313 L 335.65625 46.957031 L 336.480469 46.878906 L 337.304688 46.828125 L 338.132813 46.8125 L 338.957031 46.828125 L 339.78125 46.878906 L 340.605469 46.957031 L 341.429688 47.070313 L 342.253906 47.21875 L 343.078125 47.394531 L 343.90625 47.605469 L 344.730469 47.84375 L 345.554688 48.117188 L 346.378906 48.425781 L 347.203125 48.761719 L 348.027344 49.128906 L 348.851563 49.53125 L 349.679688 49.964844 L 350.503906 50.425781 L 351.328125 50.921875 L 352.152344 51.445313 L 352.976563 52.003906 L 353.800781 52.589844 L 354.625 53.207031 L 355.453125 53.855469 L 356.277344 54.535156 L 357.101563 55.246094 L 357.925781 55.984375 L 358.75 56.75 L 359.574219 57.546875 L 360.398438 58.375 L 361.226563 59.230469 L 362.050781 60.113281 L 362.875 61.023438 L 363.699219 61.964844 L 364.523438 62.933594 L 365.347656 63.929688 L 366.171875 64.953125 L 367 66 L 367.824219 67.078125 L 368.648438 68.179688 L 369.472656 69.308594 L 370.296875 70.464844 L 371.121094 71.644531 L 371.945313 72.847656 L 372.773438 74.078125 L 373.597656 75.332031 L 374.421875 76.613281 L 375.246094 77.914063 L 376.070313 79.238281 L 376.894531 80.585938 L 377.71875 81.957031 L 378.546875 83.347656 L 379.371094 84.761719 L 380.195313 86.199219 L 381.019531 87.65625 L 381.84375 89.132813 L 382.667969 90.628906 L 383.492188 92.148438 L 384.320313 93.683594 L 385.144531 95.238281 L 385.96875 96.8125 L 386.792969 98.40625 L 387.617188 100.015625 L 388.441406 101.644531 L 389.265625 103.289063 L 390.09375 104.949219 L 390.917969 106.625 L 391.742188 108.316406 L 392.566406 110.023438 L 393.390625 111.746094 L 394.214844 113.480469 L 395.039063 115.230469 L 395.867188 116.992188 L 396.691406 118.769531 L 397.515625 120.558594 L 398.339844 122.359375 L 399.164063 124.167969 L 399.988281 125.992188 L 400.8125 127.824219 L 401.640625 129.671875 L 402.464844 131.523438 L 403.289063 133.386719 L 404.113281 135.257813 L 404.9375 137.140625 L 405.761719 139.027344 L 406.585938 140.921875 L 407.414063 142.824219 L 408.238281 144.734375 L 409.0625 146.652344 L 409.886719 148.574219 L 410.710938 150.5 L 411.535156 152.433594 L 412.359375 154.371094 L 413.1875 156.308594 L 414.011719 158.253906 L 415.660156 162.152344 L 417.308594 166.058594 L 418.132813 168.015625 L 418.960938 169.972656 L 419.785156 171.933594 L 420.609375 173.890625 L 421.433594 175.851563 L 423.90625 181.722656 L 424.734375 183.679688 L 425.558594 185.628906 L 426.382813 187.582031 L 427.207031 189.53125 L 428.03125 191.476563 L 428.855469 193.417969 L 429.679688 195.355469 L 430.507813 197.289063 L 431.332031 199.21875 L 432.15625 201.144531 L 432.980469 203.0625 L 433.804688 204.976563 L 434.628906 206.886719 L 435.453125 208.789063 L 436.28125 210.6875 L 437.105469 212.574219 L 437.929688 214.457031 L 438.753906 216.335938 L 439.578125 218.203125 L 440.402344 220.0625 L 441.226563 221.914063 L 442.054688 223.761719 L 442.878906 225.59375 L 443.703125 227.421875 L 444.527344 229.238281 L 445.351563 231.046875 L 446.175781 232.847656 L 447 234.636719 L 447.828125 236.414063 L 448.652344 238.183594 L 449.476563 239.941406 L 450.300781 241.6875 L 451.125 243.425781 L 451.949219 245.152344 L 452.773438 246.863281 L 453.601563 248.566406 L 454.425781 250.257813 L 455.25 251.9375 L 456.074219 253.605469 L 456.898438 255.261719 L 457.722656 256.902344 L 458.546875 258.535156 L 459.375 260.152344 L 460.199219 261.757813 L 461.023438 263.347656 L 461.847656 264.929688 L 462.671875 266.496094 L 463.496094 268.046875 L 464.320313 269.585938 L 465.148438 271.113281 L 465.972656 272.625 L 466.796875 274.125 L 467.621094 275.609375 L 468.445313 277.082031 L 469.269531 278.539063 L 470.09375 279.984375 L 470.921875 281.414063 L 471.746094 282.828125 L 472.570313 284.230469 L 473.394531 285.617188 L 474.21875 286.992188 L 475.042969 288.351563 L 475.867188 289.695313 L 476.695313 291.023438 L 477.519531 292.339844 L 478.34375 293.644531 L 479.167969 294.929688 L 479.992188 296.203125 L 480.816406 297.460938 L 481.640625 298.703125 L 482.46875 299.933594 L 483.292969 301.148438 L 484.117188 302.351563 L 484.941406 303.535156 L 485.765625 304.707031 L 486.589844 305.867188 L 487.414063 307.007813 L 488.242188 308.136719 L 489.066406 309.253906 L 489.890625 310.355469 L 490.714844 311.441406 L 491.539063 312.511719 L 492.363281 313.570313 L 493.1875 314.613281 L 494.015625 315.644531 L 494.839844 316.660156 L 495.664063 317.664063 L 496.488281 318.652344 L 497.3125 319.625 L 498.136719 320.585938 L 498.960938 321.535156 L 499.789063 322.46875 L 500.613281 323.390625 L 501.4375 324.296875 L 502.261719 325.191406 L 503.085938 326.070313 L 503.910156 326.941406 L 504.734375 327.792969 L 505.5625 328.636719 L 506.386719 329.464844 L 507.210938 330.28125 L 508.035156 331.085938 L 508.859375 331.875 L 509.683594 332.652344 L 510.511719 333.417969 L 511.335938 334.171875 L 512.160156 334.914063 L 512.984375 335.644531 L 513.808594 336.363281 L 514.632813 337.070313 L 515.457031 337.761719 L 516.285156 338.445313 L 517.109375 339.117188 L 517.933594 339.777344 L 518.757813 340.425781 L 519.582031 341.0625 L 520.40625 341.6875 L 521.230469 342.304688 L 522.058594 342.910156 L 522.882813 343.503906 L 523.707031 344.085938 L 524.53125 344.660156 L 525.355469 345.222656 L 526.179688 345.773438 L 527.003906 346.316406 L 527.832031 346.847656 L 528.65625 347.371094 L 529.480469 347.882813 L 530.304688 348.386719 L 531.128906 348.878906 L 531.953125 349.363281 L 532.777344 349.839844 L 533.605469 350.304688 L 534.429688 350.761719 L 535.253906 351.210938 L 536.078125 351.652344 L 536.902344 352.082031 L 537.726563 352.503906 L 538.550781 352.917969 L 539.378906 353.324219 L 540.203125 353.722656 L 541.027344 354.109375 L 541.851563 354.492188 L 542.675781 354.867188 L 543.5 355.230469 L 544.324219 355.589844 L 545.152344 355.941406 L 545.976563 356.285156 L 546.800781 356.621094 L 547.625 356.953125 L 548.449219 357.273438 L 549.273438 357.589844 L 550.097656 357.898438 L 550.925781 358.199219 L 551.75 358.496094 L 552.574219 358.785156 L 553.398438 359.066406 L 554.222656 359.34375 L 555.046875 359.613281 L 555.871094 359.878906 L 556.699219 360.136719 L 557.523438 360.390625 L 558.347656 360.636719 L 559.171875 360.878906 L 559.996094 361.113281 L 560.820313 361.34375 L 561.644531 361.570313 L 562.472656 361.789063 L 563.296875 362.003906 L 564.121094 362.214844 L 564.945313 362.417969 L 565.769531 362.617188 L 566.59375 362.8125 L 567.417969 363.003906 L 568.246094 363.191406 L 569.894531 363.550781 L 570.71875 363.722656 L 571.542969 363.890625 L 573.191406 364.21875 L 574.019531 364.375 L 574.84375 364.527344 L 575.667969 364.675781 L 576.492188 364.820313 L 578.140625 365.101563 L 578.964844 365.234375 L 579.792969 365.367188 L 581.441406 365.617188 L 582.265625 365.738281 L 583.914063 365.972656 L 584.738281 366.082031 L 585.566406 366.191406 L 586.390625 366.300781 L 588.039063 366.503906 L 588.863281 366.601563 L 590.511719 366.789063 L 591.339844 366.878906 L 592.164063 366.96875 L 592.988281 367.054688 L 594.636719 367.21875 L 595.460938 367.296875 L 596.285156 367.371094 L 597.113281 367.445313 L 597.9375 367.519531 L 598.761719 367.589844 L 601.234375 367.789063 L 602.058594 367.851563 L 602.886719 367.910156 L 603.710938 367.972656 L 604.535156 368.027344 L 605.359375 368.085938 L 606.183594 368.136719 L 607.007813 368.191406 L 607.832031 368.242188 L 608.660156 368.292969 L 610.308594 368.386719 L 611.132813 368.429688 L 611.957031 368.476563 L 612.78125 368.519531 L 613.605469 368.558594 L 614.433594 368.601563 L 615.257813 368.640625 L 616.082031 368.675781 L 616.90625 368.714844 L 618.554688 368.785156 L 619.378906 368.816406 L 620.207031 368.847656 L 622.679688 368.941406 L 625.152344 369.023438 L 625.980469 369.050781 L 630.101563 369.167969 L 630.925781 369.1875 L 631.753906 369.210938 L 633.402344 369.25 L 634.226563 369.265625 L 635.875 369.304688 L 636.699219 369.320313 L 637.527344 369.335938 L 640.824219 369.398438 L 641.648438 369.410156 L 642.472656 369.425781 L 643.300781 369.4375 L 648.246094 369.507813 L 649.074219 369.515625 L 649.898438 369.527344 L 651.546875 369.542969 L 652.371094 369.554688 L 654.019531 369.570313 L 654.847656 369.578125 L 657.320313 369.601563 L 658.144531 369.605469 L 659.792969 369.621094 L 660.621094 369.625 L 661.445313 369.632813 L 662.269531 369.636719 L 663.09375 369.644531 L 664.742188 369.652344 L 665.566406 369.660156 L 666.394531 369.664063 L 668.042969 369.671875 L 668.042969 369.78125 L 8.21875 369.78125 Z M 8.21875 369.671875 "/>
</g>
<g clip-path="url(#clip2)" clip-rule="nonzero">
<path style=" stroke:none;fill-rule:nonzero;fill:rgb(0%,47.45098%,20.784314%);fill-opacity:0.501961;" d="M 90.695313 369.671875 L 91.523438 369.667969 L 93.171875 369.660156 L 93.996094 369.652344 L 95.644531 369.644531 L 96.46875 369.636719 L 97.296875 369.632813 L 98.121094 369.625 L 98.945313 369.621094 L 100.59375 369.605469 L 101.417969 369.601563 L 102.242188 369.59375 L 103.070313 369.585938 L 106.367188 369.554688 L 107.191406 369.542969 L 108.015625 369.535156 L 108.84375 369.527344 L 109.667969 369.515625 L 110.492188 369.507813 L 113.789063 369.460938 L 114.617188 369.449219 L 116.265625 369.425781 L 117.089844 369.410156 L 117.914063 369.398438 L 119.5625 369.367188 L 120.390625 369.351563 L 122.863281 369.304688 L 124.511719 369.265625 L 125.335938 369.25 L 126.164063 369.230469 L 126.988281 369.210938 L 127.8125 369.1875 L 128.636719 369.167969 L 131.109375 369.097656 L 131.9375 369.074219 L 132.761719 369.050781 L 136.058594 368.941406 L 136.882813 368.910156 L 137.710938 368.878906 L 140.183594 368.785156 L 141.832031 368.714844 L 142.660156 368.675781 L 143.484375 368.640625 L 144.308594 368.601563 L 145.132813 368.558594 L 145.957031 368.519531 L 146.78125 368.476563 L 147.605469 368.429688 L 148.433594 368.386719 L 150.082031 368.292969 L 151.730469 368.191406 L 152.554688 368.136719 L 153.378906 368.085938 L 154.207031 368.027344 L 155.03125 367.972656 L 155.855469 367.910156 L 156.679688 367.851563 L 157.503906 367.789063 L 159.152344 367.65625 L 159.980469 367.589844 L 160.804688 367.519531 L 163.277344 367.296875 L 164.101563 367.21875 L 164.925781 367.136719 L 165.753906 367.054688 L 166.578125 366.96875 L 168.226563 366.789063 L 169.875 366.601563 L 170.699219 366.503906 L 171.527344 366.402344 L 172.351563 366.300781 L 174.824219 365.972656 L 176.472656 365.738281 L 177.300781 365.617188 L 178.949219 365.367188 L 180.597656 365.101563 L 182.246094 364.820313 L 183.074219 364.675781 L 183.898438 364.527344 L 184.722656 364.375 L 185.546875 364.21875 L 187.195313 363.890625 L 188.019531 363.722656 L 188.847656 363.550781 L 190.496094 363.191406 L 191.320313 363.003906 L 192.144531 362.8125 L 192.96875 362.617188 L 193.792969 362.417969 L 194.621094 362.214844 L 195.445313 362.003906 L 196.269531 361.789063 L 197.09375 361.570313 L 197.917969 361.34375 L 198.742188 361.113281 L 199.566406 360.878906 L 200.394531 360.636719 L 201.21875 360.390625 L 202.042969 360.136719 L 202.867188 359.878906 L 203.691406 359.613281 L 204.515625 359.34375 L 205.339844 359.066406 L 206.167969 358.785156 L 206.992188 358.496094 L 207.816406 358.199219 L 208.640625 357.898438 L 209.464844 357.589844 L 210.289063 357.273438 L 211.113281 356.953125 L 211.941406 356.621094 L 212.765625 356.285156 L 213.589844 355.941406 L 214.414063 355.589844 L 215.238281 355.230469 L 216.0625 354.867188 L 216.886719 354.492188 L 217.714844 354.109375 L 218.539063 353.722656 L 219.363281 353.324219 L 220.1875 352.917969 L 221.011719 352.503906 L 221.835938 352.082031 L 222.660156 351.652344 L 223.488281 351.210938 L 224.3125 350.761719 L 225.136719 350.304688 L 225.960938 349.839844 L 226.785156 349.363281 L 227.609375 348.878906 L 228.433594 348.386719 L 229.261719 347.882813 L 230.085938 347.371094 L 230.910156 346.847656 L 231.734375 346.316406 L 232.558594 345.773438 L 233.382813 345.222656 L 234.207031 344.660156 L 235.035156 344.085938 L 235.859375 343.503906 L 236.683594 342.910156 L 237.507813 342.304688 L 238.332031 341.6875 L 239.15625 341.0625 L 239.980469 340.425781 L 240.808594 339.777344 L 241.632813 339.117188 L 242.457031 338.445313 L 243.28125 337.761719 L 244.105469 337.070313 L 244.929688 336.363281 L 245.753906 335.644531 L 246.582031 334.914063 L 247.40625 334.171875 L 248.230469 333.417969 L 249.054688 332.652344 L 249.878906 331.875 L 250.703125 331.085938 L 251.527344 330.28125 L 252.355469 329.464844 L 253.179688 328.636719 L 254.003906 327.792969 L 254.828125 326.941406 L 255.652344 326.070313 L 256.476563 325.191406 L 257.300781 324.296875 L 258.128906 323.390625 L 258.953125 322.46875 L 259.777344 321.535156 L 260.601563 320.585938 L 261.425781 319.625 L 262.25 318.652344 L 263.074219 317.664063 L 263.902344 316.660156 L 264.726563 315.644531 L 265.550781 314.613281 L 266.375 313.570313 L 267.199219 312.511719 L 268.023438 311.441406 L 268.847656 310.355469 L 269.675781 309.253906 L 270.5 308.136719 L 271.324219 307.007813 L 272.148438 305.867188 L 272.972656 304.707031 L 273.796875 303.535156 L 274.621094 302.351563 L 275.449219 301.148438 L 276.273438 299.933594 L 277.097656 298.703125 L 277.921875 297.460938 L 278.746094 296.203125 L 279.570313 294.929688 L 280.394531 293.644531 L 281.222656 292.339844 L 282.046875 291.023438 L 282.871094 289.695313 L 283.695313 288.351563 L 284.519531 286.992188 L 285.34375 285.617188 L 286.167969 284.230469 L 286.996094 282.828125 L 287.820313 281.414063 L 288.644531 279.984375 L 289.46875 278.539063 L 290.292969 277.082031 L 291.117188 275.609375 L 291.941406 274.125 L 292.769531 272.625 L 293.59375 271.113281 L 294.417969 269.585938 L 295.242188 268.046875 L 296.066406 266.496094 L 296.890625 264.929688 L 297.714844 263.347656 L 298.542969 261.757813 L 299.367188 260.152344 L 300.191406 258.535156 L 301.015625 256.902344 L 301.839844 255.261719 L 302.664063 253.605469 L 303.488281 251.9375 L 304.316406 250.257813 L 305.140625 248.566406 L 305.964844 246.863281 L 306.789063 245.152344 L 307.613281 243.425781 L 308.4375 241.6875 L 309.261719 239.941406 L 310.089844 238.183594 L 310.914063 236.414063 L 311.738281 234.636719 L 312.5625 232.847656 L 313.386719 231.046875 L 314.210938 229.238281 L 315.035156 227.421875 L 315.863281 225.59375 L 316.6875 223.761719 L 317.511719 221.914063 L 318.335938 220.0625 L 319.160156 218.203125 L 319.984375 216.335938 L 320.808594 214.457031 L 321.636719 212.574219 L 322.460938 210.6875 L 323.285156 208.789063 L 324.109375 206.886719 L 324.933594 204.976563 L 325.757813 203.0625 L 326.585938 201.144531 L 327.410156 199.21875 L 328.234375 197.289063 L 329.058594 195.355469 L 329.882813 193.417969 L 330.707031 191.476563 L 331.53125 189.53125 L 332.359375 187.582031 L 333.183594 185.628906 L 334.007813 183.679688 L 337.304688 175.851563 L 338.132813 173.890625 L 338.957031 171.933594 L 339.78125 169.972656 L 341.429688 166.058594 L 343.078125 162.152344 L 343.90625 160.203125 L 344.730469 158.253906 L 345.554688 156.308594 L 347.203125 152.433594 L 348.027344 150.5 L 348.851563 148.574219 L 349.679688 146.652344 L 350.503906 144.734375 L 351.328125 142.824219 L 352.152344 140.921875 L 352.976563 139.027344 L 353.800781 137.140625 L 354.625 135.257813 L 355.453125 133.386719 L 356.277344 131.523438 L 357.101563 129.671875 L 357.925781 127.824219 L 358.75 125.992188 L 359.574219 124.167969 L 360.398438 122.359375 L 361.226563 120.558594 L 362.050781 118.769531 L 362.875 116.992188 L 363.699219 115.230469 L 364.523438 113.480469 L 365.347656 111.746094 L 366.171875 110.023438 L 367 108.316406 L 367.824219 106.625 L 368.648438 104.949219 L 369.472656 103.289063 L 370.296875 101.644531 L 371.121094 100.015625 L 371.945313 98.40625 L 372.773438 96.8125 L 373.597656 95.238281 L 374.421875 93.683594 L 375.246094 92.148438 L 376.070313 90.628906 L 376.894531 89.132813 L 377.71875 87.65625 L 378.546875 86.199219 L 379.371094 84.761719 L 380.195313 83.347656 L 381.019531 81.957031 L 381.84375 80.585938 L 382.667969 79.238281 L 383.492188 77.914063 L 384.320313 76.613281 L 385.144531 75.332031 L 385.96875 74.078125 L 386.792969 72.847656 L 387.617188 71.644531 L 388.441406 70.464844 L 389.265625 69.308594 L 390.09375 68.179688 L 390.917969 67.078125 L 391.742188 66 L 392.566406 64.953125 L 393.390625 63.929688 L 394.214844 62.933594 L 395.039063 61.964844 L 395.867188 61.023438 L 396.691406 60.113281 L 397.515625 59.230469 L 398.339844 58.375 L 399.164063 57.546875 L 399.988281 56.75 L 400.8125 55.984375 L 401.640625 55.246094 L 402.464844 54.535156 L 403.289063 53.855469 L 404.113281 53.207031 L 404.9375 52.589844 L 405.761719 52.003906 L 406.585938 51.445313 L 407.414063 50.921875 L 408.238281 50.425781 L 409.0625 49.964844 L 409.886719 49.53125 L 410.710938 49.128906 L 411.535156 48.761719 L 412.359375 48.425781 L 413.1875 48.117188 L 414.011719 47.84375 L 414.835938 47.605469 L 415.660156 47.394531 L 416.484375 47.21875 L 417.308594 47.070313 L 418.132813 46.957031 L 418.960938 46.878906 L 419.785156 46.828125 L 420.609375 46.8125 L 421.433594 46.828125 L 422.257813 46.878906 L 423.082031 46.957031 L 423.90625 47.070313 L 424.734375 47.21875 L 425.558594 47.394531 L 426.382813 47.605469 L 427.207031 47.84375 L 428.03125 48.117188 L 428.855469 48.425781 L 429.679688 48.761719 L 430.507813 49.128906 L 431.332031 49.53125 L 432.15625 49.964844 L 432.980469 50.425781 L 433.804688 50.921875 L 434.628906 51.445313 L 435.453125 52.003906 L 436.28125 52.589844 L 437.105469 53.207031 L 437.929688 53.855469 L 438.753906 54.535156 L 439.578125 55.246094 L 440.402344 55.984375 L 441.226563 56.75 L 442.054688 57.546875 L 442.878906 58.375 L 443.703125 59.230469 L 444.527344 60.113281 L 445.351563 61.023438 L 446.175781 61.964844 L 447 62.933594 L 447.828125 63.929688 L 448.652344 64.953125 L 449.476563 66 L 450.300781 67.078125 L 451.125 68.179688 L 451.949219 69.308594 L 452.773438 70.464844 L 453.601563 71.644531 L 454.425781 72.847656 L 455.25 74.078125 L 456.074219 75.332031 L 456.898438 76.613281 L 457.722656 77.914063 L 458.546875 79.238281 L 459.375 80.585938 L 460.199219 81.957031 L 461.023438 83.347656 L 461.847656 84.761719 L 462.671875 86.199219 L 463.496094 87.65625 L 464.320313 89.132813 L 465.148438 90.628906 L 465.972656 92.148438 L 466.796875 93.683594 L 467.621094 95.238281 L 468.445313 96.8125 L 469.269531 98.40625 L 470.09375 100.015625 L 470.921875 101.644531 L 471.746094 103.289063 L 472.570313 104.949219 L 473.394531 106.625 L 474.21875 108.316406 L 475.042969 110.023438 L 475.867188 111.746094 L 476.695313 113.480469 L 477.519531 115.230469 L 478.34375 116.992188 L 479.167969 118.769531 L 479.992188 120.558594 L 480.816406 122.359375 L 481.640625 124.167969 L 482.46875 125.992188 L 483.292969 127.824219 L 484.117188 129.671875 L 484.941406 131.523438 L 485.765625 133.386719 L 486.589844 135.257813 L 487.414063 137.140625 L 488.242188 139.027344 L 489.066406 140.921875 L 489.890625 142.824219 L 490.714844 144.734375 L 491.539063 146.652344 L 492.363281 148.574219 L 493.1875 150.5 L 494.015625 152.433594 L 495.664063 156.308594 L 496.488281 158.253906 L 498.136719 162.152344 L 498.960938 164.105469 L 499.789063 166.058594 L 501.4375 169.972656 L 502.261719 171.933594 L 503.085938 173.890625 L 503.910156 175.851563 L 504.734375 177.808594 L 505.5625 179.765625 L 507.210938 183.679688 L 508.035156 185.628906 L 508.859375 187.582031 L 509.683594 189.53125 L 510.511719 191.476563 L 511.335938 193.417969 L 512.160156 195.355469 L 512.984375 197.289063 L 513.808594 199.21875 L 514.632813 201.144531 L 515.457031 203.0625 L 516.285156 204.976563 L 517.109375 206.886719 L 517.933594 208.789063 L 518.757813 210.6875 L 519.582031 212.574219 L 520.40625 214.457031 L 521.230469 216.335938 L 522.058594 218.203125 L 522.882813 220.0625 L 523.707031 221.914063 L 524.53125 223.761719 L 525.355469 225.59375 L 526.179688 227.421875 L 527.003906 229.238281 L 527.832031 231.046875 L 528.65625 232.847656 L 529.480469 234.636719 L 530.304688 236.414063 L 531.128906 238.183594 L 531.953125 239.941406 L 532.777344 241.6875 L 533.605469 243.425781 L 534.429688 245.152344 L 535.253906 246.863281 L 536.078125 248.566406 L 536.902344 250.257813 L 537.726563 251.9375 L 538.550781 253.605469 L 539.378906 255.261719 L 540.203125 256.902344 L 541.027344 258.535156 L 541.851563 260.152344 L 542.675781 261.757813 L 543.5 263.347656 L 544.324219 264.929688 L 545.152344 266.496094 L 545.976563 268.046875 L 546.800781 269.585938 L 547.625 271.113281 L 548.449219 272.625 L 549.273438 274.125 L 550.097656 275.609375 L 550.925781 277.082031 L 551.75 278.539063 L 552.574219 279.984375 L 553.398438 281.414063 L 554.222656 282.828125 L 555.046875 284.230469 L 555.871094 285.617188 L 556.699219 286.992188 L 557.523438 288.351563 L 558.347656 289.695313 L 559.171875 291.023438 L 559.996094 292.339844 L 560.820313 293.644531 L 561.644531 294.929688 L 562.472656 296.203125 L 563.296875 297.460938 L 564.121094 298.703125 L 564.945313 299.933594 L 565.769531 301.148438 L 566.59375 302.351563 L 567.417969 303.535156 L 568.246094 304.707031 L 569.070313 305.867188 L 569.894531 307.007813 L 570.71875 308.136719 L 571.542969 309.253906 L 572.367188 310.355469 L 573.191406 311.441406 L 574.019531 312.511719 L 574.84375 313.570313 L 575.667969 314.613281 L 576.492188 315.644531 L 577.316406 316.660156 L 578.140625 317.664063 L 578.964844 318.652344 L 579.792969 319.625 L 580.617188 320.585938 L 581.441406 321.535156 L 582.265625 322.46875 L 583.089844 323.390625 L 583.914063 324.296875 L 584.738281 325.191406 L 585.566406 326.070313 L 586.390625 326.941406 L 587.214844 327.792969 L 588.039063 328.636719 L 588.863281 329.464844 L 589.6875 330.28125 L 590.511719 331.085938 L 591.339844 331.875 L 592.164063 332.652344 L 592.988281 333.417969 L 593.8125 334.171875 L 594.636719 334.914063 L 595.460938 335.644531 L 596.285156 336.363281 L 597.113281 337.070313 L 597.9375 337.761719 L 598.761719 338.445313 L 599.585938 339.117188 L 600.410156 339.777344 L 601.234375 340.425781 L 602.058594 341.0625 L 602.886719 341.6875 L 603.710938 342.304688 L 604.535156 342.910156 L 605.359375 343.503906 L 606.183594 344.085938 L 607.007813 344.660156 L 607.832031 345.222656 L 608.660156 345.773438 L 609.484375 346.316406 L 610.308594 346.847656 L 611.132813 347.371094 L 611.957031 347.882813 L 612.78125 348.386719 L 613.605469 348.878906 L 614.433594 349.363281 L 615.257813 349.839844 L 616.082031 350.304688 L 616.90625 350.761719 L 617.730469 351.210938 L 618.554688 351.652344 L 619.378906 352.082031 L 620.207031 352.503906 L 621.03125 352.917969 L 621.855469 353.324219 L 622.679688 353.722656 L 623.503906 354.109375 L 624.328125 354.492188 L 625.152344 354.867188 L 625.980469 355.230469 L 626.804688 355.589844 L 627.628906 355.941406 L 628.453125 356.285156 L 629.277344 356.621094 L 630.101563 356.953125 L 630.925781 357.273438 L 631.753906 357.589844 L 632.578125 357.898438 L 633.402344 358.199219 L 634.226563 358.496094 L 635.050781 358.785156 L 635.875 359.066406 L 636.699219 359.34375 L 637.527344 359.613281 L 638.351563 359.878906 L 639.175781 360.136719 L 640 360.390625 L 640.824219 360.636719 L 641.648438 360.878906 L 642.472656 361.113281 L 643.300781 361.34375 L 644.125 361.570313 L 644.949219 361.789063 L 645.773438 362.003906 L 646.597656 362.214844 L 647.421875 362.417969 L 648.246094 362.617188 L 649.074219 362.8125 L 649.898438 363.003906 L 650.722656 363.191406 L 652.371094 363.550781 L 653.195313 363.722656 L 654.019531 363.890625 L 654.847656 364.054688 L 655.671875 364.21875 L 656.496094 364.375 L 657.320313 364.527344 L 658.144531 364.675781 L 658.96875 364.820313 L 659.792969 364.960938 L 660.621094 365.101563 L 662.269531 365.367188 L 663.917969 365.617188 L 664.742188 365.738281 L 665.566406 365.855469 L 666.394531 365.972656 L 668.867188 366.300781 L 670.515625 366.503906 L 671.339844 366.601563 L 672.167969 366.695313 L 672.992188 366.789063 L 674.640625 366.96875 L 675.464844 367.054688 L 677.113281 367.21875 L 677.941406 367.296875 L 680.414063 367.519531 L 681.238281 367.589844 L 682.886719 367.722656 L 683.714844 367.789063 L 684.539063 367.851563 L 685.363281 367.910156 L 686.1875 367.972656 L 687.011719 368.027344 L 687.835938 368.085938 L 688.660156 368.136719 L 689.488281 368.191406 L 691.136719 368.292969 L 692.785156 368.386719 L 693.609375 368.429688 L 694.4375 368.476563 L 695.261719 368.519531 L 696.085938 368.558594 L 696.910156 368.601563 L 697.734375 368.640625 L 698.558594 368.675781 L 699.382813 368.714844 L 700.210938 368.75 L 701.035156 368.785156 L 705.15625 368.941406 L 705.984375 368.96875 L 708.457031 369.050781 L 710.929688 369.121094 L 711.757813 369.144531 L 712.582031 369.167969 L 713.40625 369.1875 L 714.230469 369.210938 L 715.878906 369.25 L 716.703125 369.265625 L 717.53125 369.285156 L 718.355469 369.304688 L 722.476563 369.382813 L 723.304688 369.398438 L 724.128906 369.410156 L 724.953125 369.425781 L 728.25 369.472656 L 729.078125 369.484375 L 730.726563 369.507813 L 731.550781 369.515625 L 732.375 369.527344 L 734.023438 369.542969 L 734.851563 369.554688 L 739.796875 369.601563 L 740.625 369.605469 L 742.273438 369.621094 L 743.097656 369.625 L 743.921875 369.632813 L 744.746094 369.636719 L 745.570313 369.644531 L 746.398438 369.648438 L 747.222656 369.652344 L 748.046875 369.660156 L 750.519531 369.671875 L 750.519531 369.78125 L 90.695313 369.78125 Z M 90.695313 369.671875 "/>
</g>
<g clip-path="url(#clip3)" clip-rule="nonzero">
<path style="fill:none;stroke-width:2.133957;stroke-linecap:butt;stroke-linejoin:round;stroke:rgb(0%,47.45098%,20.784314%);stroke-opacity:1;stroke-miterlimit:10;" d="M 420.609375 369.78125 L 420.609375 5.480469 "/>
</g>
<g clip-path="url(#clip4)" clip-rule="nonzero">
<path style="fill:none;stroke-width:2.133957;stroke-linecap:butt;stroke-linejoin:round;stroke:rgb(90.196078%,25.490196%,45.098039%);stroke-opacity:1;stroke-miterlimit:10;" d="M 338.132813 369.78125 L 338.132813 5.480469 "/>
</g>
<path style="fill:none;stroke-width:1.066978;stroke-linecap:butt;stroke-linejoin:round;stroke:rgb(15.294118%,15.686275%,13.333333%);stroke-opacity:1;stroke-miterlimit:10;" d="M 8.21875 369.78125 L 750.519531 369.78125 "/>
</g>
</svg>
